<svg width="1150" height="50" viewBox="0 0 1150 50" fill="none" xmlns="http://www.w3.org/2000/svg">
<path d="M20 5C8.94009 5 0 13.9401 0 25C0 36.0599 8.94009 45 20 45C31.0599 45 40 36.0599 40 25C40 13.9401 31.0599 5 20 5ZM17.235 33.4793L15.7604 37.8111C10.2304 35.9677 6.54378 30.7143 6.54378 24.8157C6.54378 18.917 10.2304 13.7558 15.8525 11.8203L17.3272 16.1521C13.6406 17.3502 11.2442 20.8525 11.2442 24.7235C11.0599 28.7788 13.5484 32.2811 17.235 33.4793ZM24.0553 37.9032L22.6728 33.4793C26.4516 32.2811 28.9401 28.7788 28.9401 24.8157C28.9401 20.8525 26.4516 17.4424 22.765 16.2442L24.2396 11.8203C29.8617 13.6636 33.6406 18.917 33.6406 24.8157C33.6406 30.8986 29.7696 36.1521 24.0553 37.9032Z" fill="#00BEF0"/>
<path d="M124 9C115.152 9 108 16.1521 108 25C108 33.8479 115.152 41 124 41C132.848 41 140 33.8479 140 25C140 16.1521 132.848 9 124 9ZM121.788 31.7834L120.608 35.2488C116.184 33.7742 113.235 29.5714 113.235 24.8525C113.235 20.1336 116.184 16.0046 120.682 14.4562L121.862 17.9217C118.912 18.8802 116.995 21.682 116.995 24.7788C116.848 28.023 118.839 30.8249 121.788 31.7834ZM127.244 35.3226L126.138 31.7834C129.161 30.8249 131.152 28.023 131.152 24.8525C131.152 21.682 129.161 18.9539 126.212 17.9954L127.392 14.4562C131.889 15.9309 134.912 20.1336 134.912 24.8525C134.912 29.7189 131.816 33.9217 127.244 35.3226Z" fill="#00BEF0"/>
<path d="M270.507 27.8753L272.277 30.0136C270.433 31.9306 268.148 32.4467 266.304 32.4467C264.535 32.4467 263.281 32.1518 262.175 31.6357C259.816 30.456 258.636 28.0965 258.636 25.2209C258.636 20.8707 261.586 17.6265 265.936 17.6265C270.802 17.6265 273.162 21.2394 272.793 25.9583H261.733C261.807 27.138 262.47 28.244 263.429 28.8338C264.24 29.35 265.198 29.5712 266.452 29.5712C267.853 29.5712 269.254 29.1288 270.507 27.8753ZM261.807 23.3776H269.622C269.401 21.6818 268 20.2071 265.788 20.2071C263.503 20.2071 262.102 21.8292 261.807 23.3776ZM187.558 32.0043H191.539L185.272 24.7048L191.466 17.8477H187.558L182.839 23.3039H181.438V17.8477H178.415V31.9306H181.438V26.3269H182.839L187.558 32.0043ZM200.535 20.4283C197.954 20.4283 196.258 22.4191 196.258 24.926C196.258 27.4329 197.954 29.4237 200.535 29.4237C203.115 29.4237 204.738 27.5067 204.738 24.926C204.811 22.4928 203.189 20.4283 200.535 20.4283ZM201.051 17.5527C205.033 17.5527 207.982 20.6495 207.982 24.926C207.982 29.1288 205.106 32.373 201.051 32.373C199.134 32.373 197.586 31.7094 196.48 30.5297V37.903H193.383V17.9214H196.406V19.6172C197.586 18.2163 199.134 17.5527 201.051 17.5527ZM241.235 17.9214H228.627V20.7232H233.42V32.0043H236.516V20.7232H241.309V17.9214H241.235ZM176.277 17.9214H163.595V20.7232H168.387V32.0043H171.484V20.7232H176.277V17.9214ZM159.908 24.9997C159.908 22.3454 158.065 20.4283 155.484 20.4283C152.977 20.4283 151.06 22.3454 151.06 24.9997C151.06 27.6541 152.903 29.5712 155.484 29.5712C157.991 29.5712 159.908 27.6541 159.908 24.9997ZM147.89 24.9997C147.89 20.797 151.134 17.6265 155.484 17.6265C159.761 17.6265 163.079 20.797 163.079 24.9997C163.079 29.2025 159.834 32.4467 155.484 32.4467C151.208 32.373 147.89 29.2025 147.89 24.9997ZM256.203 17.9214V32.0043H253.18V22.9352L245.807 32.0043H243.374V17.9214H246.397V26.9905L253.77 17.9214H256.203ZM226.489 32.0043H223.466V17.9214H226.489V32.0043ZM218.673 27.2117C218.673 25.9583 217.788 25.0735 216.609 25.0735H213.512V29.4237H216.609C217.788 29.4237 218.673 28.4652 218.673 27.2117ZM221.696 27.2117C221.696 30.0136 219.632 32.0043 216.682 32.0043H210.489V17.9214H213.512V22.4928H216.977C219.927 22.4928 221.696 24.4099 221.696 27.2117Z" fill="black"/>
<rect x="591" y="5" width="40" height="40" fill="#00BEF0"/>
<path d="M611 11C603.258 11 597 17.2581 597 25C597 32.7419 603.258 39 611 39C618.742 39 625 32.7419 625 25C625 17.2581 618.742 11 611 11ZM609.065 30.9355L608.032 33.9677C604.161 32.6774 601.581 29 601.581 24.871C601.581 20.7419 604.161 17.129 608.097 15.7742L609.129 18.8065C606.548 19.6452 604.871 22.0968 604.871 24.8065C604.742 27.6452 606.484 30.0968 609.065 30.9355ZM613.839 34.0323L612.871 30.9355C615.516 30.0968 617.258 27.6452 617.258 24.871C617.258 22.0968 615.516 19.7097 612.935 18.871L613.968 15.7742C617.903 17.0645 620.548 20.7419 620.548 24.871C620.548 29.129 617.839 32.8065 613.839 34.0323Z" fill="white"/>
<rect x="681" width="200" height="50" fill="#00BEF0"/>
<path d="M715 9C706.152 9 699 16.1521 699 25C699 33.8479 706.152 41 715 41C723.848 41 731 33.8479 731 25C731 16.1521 723.848 9 715 9ZM712.788 31.7834L711.608 35.2488C707.184 33.7742 704.235 29.5714 704.235 24.8525C704.235 20.1336 707.184 16.0046 711.682 14.4562L712.862 17.9217C709.912 18.8802 707.995 21.682 707.995 24.7788C707.848 28.023 709.839 30.8249 712.788 31.7834ZM718.244 35.3226L717.138 31.7834C720.161 30.8249 722.152 28.023 722.152 24.8525C722.152 21.682 720.161 18.9539 717.212 17.9954L718.392 14.4562C722.889 15.9309 725.912 20.1336 725.912 24.8525C725.912 29.7189 722.816 33.9217 718.244 35.3226Z" fill="white"/>
<path d="M861.507 27.8753L863.277 30.0136C861.433 31.9306 859.148 32.4467 857.304 32.4467C855.535 32.4467 854.281 32.1518 853.175 31.6357C850.816 30.456 849.636 28.0965 849.636 25.2209C849.636 20.8707 852.586 17.6265 856.936 17.6265C861.802 17.6265 864.162 21.2394 863.793 25.9583H852.733C852.807 27.138 853.47 28.244 854.429 28.8338C855.24 29.35 856.198 29.5712 857.452 29.5712C858.853 29.5712 860.254 29.1288 861.507 27.8753ZM852.807 23.3776H860.622C860.401 21.6818 859 20.2071 856.788 20.2071C854.503 20.2071 853.102 21.8292 852.807 23.3776ZM778.558 32.0043H782.539L776.272 24.7048L782.466 17.8477H778.558L773.839 23.3039H772.438V17.8477H769.415V31.9306H772.438V26.3269H773.839L778.558 32.0043ZM791.535 20.4283C788.954 20.4283 787.258 22.4191 787.258 24.926C787.258 27.4329 788.954 29.4237 791.535 29.4237C794.115 29.4237 795.738 27.5067 795.738 24.926C795.811 22.4928 794.189 20.4283 791.535 20.4283ZM792.051 17.5527C796.033 17.5527 798.982 20.6495 798.982 24.926C798.982 29.1288 796.106 32.373 792.051 32.373C790.134 32.373 788.586 31.7094 787.48 30.5297V37.903H784.383V17.9214H787.406V19.6172C788.586 18.2163 790.134 17.5527 792.051 17.5527ZM832.235 17.9214H819.627V20.7232H824.42V32.0043H827.516V20.7232H832.309V17.9214H832.235ZM767.277 17.9214H754.595V20.7232H759.387V32.0043H762.484V20.7232H767.277V17.9214ZM750.908 24.9997C750.908 22.3454 749.065 20.4283 746.484 20.4283C743.977 20.4283 742.06 22.3454 742.06 24.9997C742.06 27.6541 743.903 29.5712 746.484 29.5712C748.991 29.5712 750.908 27.6541 750.908 24.9997ZM738.89 24.9997C738.89 20.797 742.134 17.6265 746.484 17.6265C750.761 17.6265 754.079 20.797 754.079 24.9997C754.079 29.2025 750.834 32.4467 746.484 32.4467C742.208 32.373 738.89 29.2025 738.89 24.9997ZM847.203 17.9214V32.0043H844.18V22.9352L836.807 32.0043H834.374V17.9214H837.397V26.9905L844.77 17.9214H847.203ZM817.489 32.0043H814.466V17.9214H817.489V32.0043ZM809.673 27.2117C809.673 25.9583 808.788 25.0735 807.609 25.0735H804.512V29.4237H807.609C808.788 29.4237 809.673 28.4652 809.673 27.2117ZM812.696 27.2117C812.696 30.0136 810.632 32.0043 807.682 32.0043H801.489V17.9214H804.512V22.4928H807.977C810.927 22.4928 812.696 24.4099 812.696 27.2117Z" fill="white"/>
<path d="M947 9C938.152 9 931 16.1521 931 25C931 33.8479 938.152 41 947 41C955.848 41 963 33.8479 963 25C963 16.1521 955.848 9 947 9ZM944.788 31.7834L943.608 35.2488C939.184 33.7742 936.235 29.5714 936.235 24.8525C936.235 20.1336 939.184 16.0046 943.682 14.4562L944.862 17.9217C941.912 18.8802 939.995 21.682 939.995 24.7788C939.848 28.023 941.839 30.8249 944.788 31.7834ZM950.244 35.3226L949.138 31.7834C952.161 30.8249 954.152 28.023 954.152 24.8525C954.152 21.682 952.161 18.9539 949.212 17.9954L950.392 14.4562C954.889 15.9309 957.912 20.1336 957.912 24.8525C957.912 29.7189 954.816 33.9217 950.244 35.3226Z" fill="white"/>
<path d="M1093.51 27.8753L1095.28 30.0136C1093.43 31.9306 1091.15 32.4467 1089.3 32.4467C1087.53 32.4467 1086.28 32.1518 1085.18 31.6357C1082.82 30.456 1081.64 28.0965 1081.64 25.2209C1081.64 20.8707 1084.59 17.6265 1088.94 17.6265C1093.8 17.6265 1096.16 21.2394 1095.79 25.9583H1084.73C1084.81 27.138 1085.47 28.244 1086.43 28.8338C1087.24 29.35 1088.2 29.5712 1089.45 29.5712C1090.85 29.5712 1092.25 29.1288 1093.51 27.8753ZM1084.81 23.3776H1092.62C1092.4 21.6818 1091 20.2071 1088.79 20.2071C1086.5 20.2071 1085.1 21.8292 1084.81 23.3776ZM1010.56 32.0043H1014.54L1008.27 24.7048L1014.47 17.8477H1010.56L1005.84 23.3039H1004.44V17.8477H1001.41V31.9306H1004.44V26.3269H1005.84L1010.56 32.0043ZM1023.53 20.4283C1020.95 20.4283 1019.26 22.4191 1019.26 24.926C1019.26 27.4329 1020.95 29.4237 1023.53 29.4237C1026.12 29.4237 1027.74 27.5067 1027.74 24.926C1027.81 22.4928 1026.19 20.4283 1023.53 20.4283ZM1024.05 17.5527C1028.03 17.5527 1030.98 20.6495 1030.98 24.926C1030.98 29.1288 1028.11 32.373 1024.05 32.373C1022.13 32.373 1020.59 31.7094 1019.48 30.5297V37.903H1016.38V17.9214H1019.41V19.6172C1020.59 18.2163 1022.13 17.5527 1024.05 17.5527ZM1064.24 17.9214H1051.63V20.7232H1056.42V32.0043H1059.52V20.7232H1064.31V17.9214H1064.24ZM999.277 17.9214H986.595V20.7232H991.387V32.0043H994.484V20.7232H999.277V17.9214ZM982.908 24.9997C982.908 22.3454 981.065 20.4283 978.484 20.4283C975.977 20.4283 974.06 22.3454 974.06 24.9997C974.06 27.6541 975.903 29.5712 978.484 29.5712C980.991 29.5712 982.908 27.6541 982.908 24.9997ZM970.89 24.9997C970.89 20.797 974.134 17.6265 978.484 17.6265C982.761 17.6265 986.079 20.797 986.079 24.9997C986.079 29.2025 982.834 32.4467 978.484 32.4467C974.208 32.373 970.89 29.2025 970.89 24.9997ZM1079.2 17.9214V32.0043H1076.18V22.9352L1068.81 32.0043H1066.37V17.9214H1069.4V26.9905L1076.77 17.9214H1079.2ZM1049.49 32.0043H1046.47V17.9214H1049.49V32.0043ZM1041.67 27.2117C1041.67 25.9583 1040.79 25.0735 1039.61 25.0735H1036.51V29.4237H1039.61C1040.79 29.4237 1041.67 28.4652 1041.67 27.2117ZM1044.7 27.2117C1044.7 30.0136 1042.63 32.0043 1039.68 32.0043H1033.49V17.9214H1036.51V22.4928H1039.98C1042.93 22.4928 1044.7 24.4099 1044.7 27.2117Z" fill="white"/>
<path d="M356 9C347.152 9 340 16.1521 340 25C340 33.8479 347.152 41 356 41C364.848 41 372 33.8479 372 25C372 16.1521 364.848 9 356 9ZM353.788 31.7834L352.608 35.2488C348.184 33.7742 345.235 29.5714 345.235 24.8525C345.235 20.1336 348.184 16.0046 352.682 14.4562L353.862 17.9217C350.912 18.8802 348.995 21.682 348.995 24.7788C348.848 28.023 350.839 30.8249 353.788 31.7834ZM359.244 35.3226L358.138 31.7834C361.161 30.8249 363.152 28.023 363.152 24.8525C363.152 21.682 361.161 18.9539 358.212 17.9954L359.392 14.4562C363.889 15.9309 366.912 20.1336 366.912 24.8525C366.912 29.7189 363.816 33.9217 359.244 35.3226Z" fill="#00BEF0"/>
<path d="M502.507 27.8753L504.277 30.0136C502.433 31.9306 500.148 32.4467 498.304 32.4467C496.535 32.4467 495.281 32.1518 494.175 31.6357C491.816 30.456 490.636 28.0965 490.636 25.2209C490.636 20.8707 493.586 17.6265 497.936 17.6265C502.802 17.6265 505.162 21.2394 504.793 25.9583H493.733C493.807 27.138 494.47 28.244 495.429 28.8338C496.24 29.35 497.198 29.5712 498.452 29.5712C499.853 29.5712 501.254 29.1288 502.507 27.8753ZM493.807 23.3776H501.622C501.401 21.6818 500 20.2071 497.788 20.2071C495.503 20.2071 494.102 21.8292 493.807 23.3776ZM419.558 32.0043H423.539L417.272 24.7048L423.466 17.8477H419.558L414.839 23.3039H413.438V17.8477H410.415V31.9306H413.438V26.3269H414.839L419.558 32.0043ZM432.535 20.4283C429.954 20.4283 428.258 22.4191 428.258 24.926C428.258 27.4329 429.954 29.4237 432.535 29.4237C435.115 29.4237 436.738 27.5067 436.738 24.926C436.811 22.4928 435.189 20.4283 432.535 20.4283ZM433.051 17.5527C437.033 17.5527 439.982 20.6495 439.982 24.926C439.982 29.1288 437.106 32.373 433.051 32.373C431.134 32.373 429.586 31.7094 428.48 30.5297V37.903H425.383V17.9214H428.406V19.6172C429.586 18.2163 431.134 17.5527 433.051 17.5527ZM473.235 17.9214H460.627V20.7232H465.42V32.0043H468.516V20.7232H473.309V17.9214H473.235ZM408.277 17.9214H395.595V20.7232H400.387V32.0043H403.484V20.7232H408.277V17.9214ZM391.908 24.9997C391.908 22.3454 390.065 20.4283 387.484 20.4283C384.977 20.4283 383.06 22.3454 383.06 24.9997C383.06 27.6541 384.903 29.5712 387.484 29.5712C389.991 29.5712 391.908 27.6541 391.908 24.9997ZM379.89 24.9997C379.89 20.797 383.134 17.6265 387.484 17.6265C391.761 17.6265 395.079 20.797 395.079 24.9997C395.079 29.2025 391.834 32.4467 387.484 32.4467C383.208 32.373 379.89 29.2025 379.89 24.9997ZM488.203 17.9214V32.0043H485.18V22.9352L477.807 32.0043H475.374V17.9214H478.397V26.9905L485.77 17.9214H488.203ZM458.489 32.0043H455.466V17.9214H458.489V32.0043ZM450.673 27.2117C450.673 25.9583 449.788 25.0735 448.609 25.0735H445.512V29.4237H448.609C449.788 29.4237 450.673 28.4652 450.673 27.2117ZM453.696 27.2117C453.696 30.0136 451.632 32.0043 448.682 32.0043H442.489V17.9214H445.512V22.4928H448.977C451.927 22.4928 453.696 24.4099 453.696 27.2117Z" fill="black"/>
</svg>
