<svg width="1150" height="50" viewBox="0 0 1150 50" fill="none" xmlns="http://www.w3.org/2000/svg">
<path d="M26.6701 5L13.3301 18.33H26.6701V45L40.0001 31.7V5H26.6701Z" fill="#EA5616"/>
<path d="M13.33 45L26.67 31.67H13.33V5L0 18.3V45H13.33Z" fill="#2C2D84"/>
<path d="M154.43 6.67969L142.21 18.8897H154.43V43.3197L166.64 31.1397V6.67969H154.43Z" fill="#EA5616"/>
<path d="M142.21 43.3197L154.43 31.1097H142.21V6.67969L130 18.8597V43.3197H142.21ZM178.86 37.2097H185.27V18.2797H195V37.2097H201.41V12.7897H178.86V37.2097ZM241.15 21.9297H235.67V18.2797H247.87V12.7797H229.25V37.2097H241.45C246.34 37.2097 250 34.7597 250 29.5697C250 24.3797 246.34 21.9297 241.14 21.9297H241.15ZM240.53 31.9997H235.66V27.1397H240.53C242.04 27.1397 243.53 27.7397 243.53 29.5697C243.53 31.3997 242 31.9997 240.53 31.9997ZM217.14 31.9997C212.86 31.9997 210.45 28.8597 210.45 24.9997C210.45 21.8897 212.2 17.9997 217.01 17.9997C218.088 18.009 219.151 18.2547 220.124 18.7195C221.096 19.1843 221.955 19.8568 222.64 20.6897L226.54 16.7897C225.338 15.3515 223.834 14.1949 222.135 13.4018C220.437 12.6086 218.585 12.1983 216.71 12.1997C215.021 12.1551 213.341 12.4564 211.773 13.0851C210.205 13.7137 208.782 14.6564 207.591 15.8553C206.401 17.0541 205.468 18.4838 204.851 20.0563C204.233 21.6289 203.944 23.3112 204 24.9997C203.979 27.6928 204.813 30.3231 206.383 32.5116C207.952 34.7002 210.176 36.3342 212.733 37.1782C215.291 38.0222 218.05 38.0326 220.614 37.208C223.178 36.3834 225.414 34.7663 227 32.5897L223.08 28.6697C222.458 29.7016 221.577 30.5533 220.524 31.1408C219.472 31.7283 218.285 32.0312 217.08 32.0197" fill="#2C2D84"/>
<rect x="591" y="5" width="40" height="40" fill="#2C2D84"/>
<path d="M615.002 13L606.998 20.998H615.002V37L623 29.02V13H615.002Z" fill="#EA5616"/>
<path d="M606.998 37L615.002 29.002H606.998V13L599 20.98V37H606.998Z" fill="white"/>
<rect x="681" width="200" height="50" fill="#2C2D84"/>
<path d="M751.358 10L741.175 20.175H751.358V40.5333L761.533 30.3833V10H751.358Z" fill="#EA5616"/>
<path d="M741.175 40.5333L751.358 30.3583H741.175V10L731 20.15V40.5333H741.175ZM771.717 35.4417H777.058V19.6667H785.167V35.4417H790.508V15.0917H771.717V35.4417ZM823.625 22.7083H819.058V19.6667H829.225V15.0833H813.708V35.4417H823.875C827.95 35.4417 831 33.4 831 29.075C831 24.75 827.95 22.7083 823.617 22.7083H823.625ZM823.108 31.1H819.05V27.05H823.108C824.367 27.05 825.608 27.55 825.608 29.075C825.608 30.6 824.333 31.1 823.108 31.1ZM803.617 31.1C800.05 31.1 798.042 28.4833 798.042 25.2667C798.042 22.675 799.5 19.4333 803.508 19.4333C804.407 19.4411 805.292 19.6458 806.103 20.0332C806.913 20.4205 807.629 20.9809 808.2 21.675L811.45 18.425C810.448 17.2265 809.195 16.2627 807.779 15.6018C806.364 14.9408 804.821 14.5988 803.258 14.6C801.851 14.5628 800.451 14.8139 799.144 15.3378C797.838 15.8617 796.652 16.6473 795.659 17.6463C794.667 18.6453 793.89 19.8368 793.376 21.1472C792.861 22.4577 792.62 23.8596 792.667 25.2667C792.649 27.5109 793.344 29.7028 794.653 31.5266C795.96 33.3504 797.813 34.7121 799.944 35.4154C802.076 36.1188 804.375 36.1274 806.512 35.4403C808.648 34.7531 810.512 33.4055 811.833 31.5917L808.567 28.325C808.048 29.1849 807.314 29.8947 806.437 30.3843C805.56 30.8738 804.571 31.1263 803.567 31.1167" fill="white"/>
<path d="M951.358 9.5L941.175 19.675H951.358V40.0333L961.533 29.8833V9.5H951.358Z" fill="#EA5616"/>
<path d="M941.175 40.0333L951.358 29.8583H941.175V9.5L931 19.65V40.0333H941.175ZM971.717 34.9417H977.058V19.1667H985.167V34.9417H990.508V14.5917H971.717V34.9417ZM1023.62 22.2083H1019.06V19.1667H1029.22V14.5833H1013.71V34.9417H1023.87C1027.95 34.9417 1031 32.9 1031 28.575C1031 24.25 1027.95 22.2083 1023.62 22.2083H1023.62ZM1023.11 30.6H1019.05V26.55H1023.11C1024.37 26.55 1025.61 27.05 1025.61 28.575C1025.61 30.1 1024.33 30.6 1023.11 30.6ZM1003.62 30.6C1000.05 30.6 998.042 27.9833 998.042 24.7667C998.042 22.175 999.5 18.9333 1003.51 18.9333C1004.41 18.9411 1005.29 19.1458 1006.1 19.5332C1006.91 19.9205 1007.63 20.4809 1008.2 21.175L1011.45 17.925C1010.45 16.7265 1009.19 15.7627 1007.78 15.1018C1006.36 14.4408 1004.82 14.0988 1003.26 14.1C1001.85 14.0628 1000.45 14.3139 999.144 14.8378C997.838 15.3617 996.652 16.1473 995.659 17.1463C994.667 18.1453 993.89 19.3368 993.376 20.6472C992.861 21.9577 992.62 23.3596 992.667 24.7667C992.649 27.0109 993.344 29.2028 994.653 31.0266C995.96 32.8504 997.813 34.2121 999.944 34.9154C1002.08 35.6188 1004.38 35.6274 1006.51 34.9403C1008.65 34.2531 1010.51 32.9055 1011.83 31.0917L1008.57 27.825C1008.05 28.6849 1007.31 29.3947 1006.44 29.8843C1005.56 30.3738 1004.57 30.6263 1003.57 30.6167" fill="white"/>
<path d="M364.43 6.67969L352.21 18.8897H364.43V43.3197L376.64 31.1397V6.67969H364.43Z" fill="#EA5616"/>
<path d="M352.21 43.3197L364.43 31.1097H352.21V6.67969L340 18.8597V43.3197H352.21ZM388.86 37.2097H395.27V18.2797H405V37.2097H411.41V12.7897H388.86V37.2097ZM451.15 21.9297H445.67V18.2797H457.87V12.7797H439.25V37.2097H451.45C456.34 37.2097 460 34.7597 460 29.5697C460 24.3797 456.34 21.9297 451.14 21.9297H451.15ZM450.53 31.9997H445.66V27.1397H450.53C452.04 27.1397 453.53 27.7397 453.53 29.5697C453.53 31.3997 452 31.9997 450.53 31.9997ZM427.14 31.9997C422.86 31.9997 420.45 28.8597 420.45 24.9997C420.45 21.8897 422.2 17.9997 427.01 17.9997C428.088 18.009 429.151 18.2547 430.124 18.7195C431.096 19.1843 431.955 19.8568 432.64 20.6897L436.54 16.7897C435.338 15.3515 433.834 14.1949 432.135 13.4018C430.437 12.6086 428.585 12.1983 426.71 12.1997C425.021 12.1551 423.341 12.4564 421.773 13.0851C420.205 13.7137 418.782 14.6564 417.591 15.8553C416.401 17.0541 415.468 18.4838 414.851 20.0563C414.233 21.6289 413.944 23.3112 414 24.9997C413.979 27.6928 414.813 30.3231 416.383 32.5116C417.952 34.7002 420.176 36.3342 422.733 37.1782C425.291 38.0222 428.05 38.0326 430.614 37.208C433.178 36.3834 435.414 34.7663 437 32.5897L433.08 28.6697C432.458 29.7016 431.577 30.5533 430.524 31.1408C429.472 31.7283 428.285 32.0312 427.08 32.0197" fill="#2C2D84"/>
</svg>
