<svg width="40" height="40" viewBox="0 0 40 40" fill="none" xmlns="http://www.w3.org/2000/svg">
<path d="M40 32.44C40 37.3 37.3 40 32.44 40H7.56C2.7 40 0 37.3 0 32.44V7.56C0 2.7 2.7 0 7.56 0H32.45C37.3 0 40 2.7 40 7.56V32.44Z" fill="#FFE600"/>
<path d="M25.7195 18.0494V14.2294L27.0995 12.8494V16.1594L28.2995 17.3594L33.1295 12.5294L34.3195 13.7194C34.3095 12.8194 34.1295 10.2094 31.9195 8.03942C29.5395 5.73942 26.9595 6.77942 26.0795 7.65942L21.2595 12.4794L22.4895 13.7094L19.9995 16.2194L17.5095 13.7294L18.7395 12.4994L13.9195 7.67942C13.0395 6.79942 10.4595 5.75942 8.07944 8.05942C5.86944 10.2294 5.68944 12.8394 5.67944 13.7394L6.86944 12.5494L11.6995 17.3794L12.8995 16.1794V12.8694L14.2795 14.2494V18.0694L16.2195 19.9994L6.65944 29.5594L10.4395 33.3294L19.9995 23.7794L29.5595 33.3394L33.3395 29.5694L23.7795 19.9994L25.7195 18.0494Z" fill="#2B2D34"/>
</svg>
