<svg width="41" height="41" viewBox="0 0 41 41" fill="none" xmlns="http://www.w3.org/2000/svg">
<path d="M30.5476 0L9 2.84381V9.28571L30.5476 7.34305V0Z" fill="#E4003A"/>
<path d="M31.3098 13C27.7968 13 24.9416 15.1638 24.2337 16.0596V13.4631H18V40.0238H24.1946V30.5766C24.9218 31.4919 27.7573 33.6168 31.2901 33.6168C37.1524 33.6168 40.381 30.4403 40.381 23.2933C40.381 16.1462 37.1568 13 31.3098 13ZM29.0906 28.4712C25.3997 28.4712 24.238 27.1318 24.238 23.2781C24.238 19.4244 25.391 18.085 29.0906 18.085C32.7903 18.085 33.9216 19.4049 33.9216 23.2781C33.9216 27.1513 32.8076 28.4626 29.0906 28.4626V28.4712Z" fill="#00274F"/>
</svg>
