<svg width="14" height="22" viewBox="0 0 14 22" fill="none" xmlns="http://www.w3.org/2000/svg">
<path d="M10.8471 18.4597C10.8471 18.4597 11.9724 17.5379 12.0266 16.3287C12.0809 15.1195 11.0435 14.0809 11.0435 14.0809C11.0435 14.0809 9.91823 15.0027 9.86401 16.2119C9.80979 17.4211 10.8471 18.4597 10.8471 18.4597Z" fill="#BBBBBB"/>
<path d="M10.8471 18.4597C10.8471 18.4597 11.9724 17.5379 12.0266 16.3287C12.0809 15.1195 11.0435 14.0809 11.0435 14.0809C11.0435 14.0809 9.91823 15.0027 9.86401 16.2119C9.80979 17.4211 10.8471 18.4597 10.8471 18.4597Z" fill="#BBBBBB"/>
<path d="M10.293 18.8933C10.293 18.8933 9.05251 19.6494 7.90782 19.2906C6.76313 18.9317 6.14775 17.5938 6.14775 17.5938C6.14775 17.5938 7.38828 16.8376 8.53297 17.1965C9.67766 17.5554 10.293 18.8933 10.293 18.8933Z" fill="#BBBBBB"/>
<path d="M10.293 18.8933C10.293 18.8933 9.05251 19.6494 7.90782 19.2906C6.76313 18.9317 6.14775 17.5938 6.14775 17.5938C6.14775 17.5938 7.38828 16.8376 8.53297 17.1965C9.67766 17.5554 10.293 18.8933 10.293 18.8933Z" fill="#BBBBBB"/>
<path d="M8.44067 14.9037C8.44067 14.9037 7.92916 13.5223 8.48208 12.4531C9.03499 11.384 10.443 11.0319 10.443 11.0319C10.443 11.0319 10.9545 12.4133 10.4015 13.4825C9.84863 14.5516 8.44067 14.9037 8.44067 14.9037Z" fill="#BBBBBB"/>
<path d="M8.44067 14.9037C8.44067 14.9037 7.92916 13.5223 8.48208 12.4531C9.03499 11.384 10.443 11.0319 10.443 11.0319C10.443 11.0319 10.9545 12.4133 10.4015 13.4825C9.84863 14.5516 8.44067 14.9037 8.44067 14.9037Z" fill="#BBBBBB"/>
<path d="M6.13436 7.21415C6.13436 7.21415 7.63472 5.98503 7.70702 4.37277C7.81091 2.05573 6.42888 0.645616 6.42888 0.645616C6.42888 0.645616 4.4296 1.8445 4.32444 4.18985C4.21928 6.53519 6.13436 7.21415 6.13436 7.21415Z" fill="#BBBBBB"/>
<path d="M6.13436 7.21415C6.13436 7.21415 7.63472 5.98503 7.70702 4.37277C7.81091 2.05573 6.42888 0.645616 6.42888 0.645616C6.42888 0.645616 4.4296 1.8445 4.32444 4.18985C4.21928 6.53519 6.13436 7.21415 6.13436 7.21415Z" fill="#BBBBBB"/>
<path d="M6.43374 11.0652C6.43374 11.0652 4.25214 11.6198 2.70823 10.567C1.16432 9.51425 0.842742 7.25271 0.842742 7.25271C0.842742 7.25271 3.02434 6.69805 4.56825 7.75084C6.11217 8.80362 6.43374 11.0652 6.43374 11.0652Z" fill="#BBBBBB"/>
<path d="M6.43374 11.0652C6.43374 11.0652 4.25214 11.6198 2.70823 10.567C1.16432 9.51425 0.842742 7.25271 0.842742 7.25271C0.842742 7.25271 3.02434 6.69805 4.56825 7.75084C6.11217 8.80362 6.43374 11.0652 6.43374 11.0652Z" fill="#BBBBBB"/>
<path d="M7.04948 10.8584C7.04948 10.8584 6.36825 9.01625 7.10608 7.59101C7.84391 6.16578 9.7214 5.69718 9.7214 5.69718C9.7214 5.69718 10.4026 7.53935 9.6648 8.96459C8.92697 10.3898 7.04948 10.8584 7.04948 10.8584Z" fill="#BBBBBB"/>
<path d="M7.04948 10.8584C7.04948 10.8584 6.36825 9.01625 7.10608 7.59101C7.84391 6.16578 9.7214 5.69718 9.7214 5.69718C9.7214 5.69718 10.4026 7.53935 9.6648 8.96459C8.92697 10.3898 7.04948 10.8584 7.04948 10.8584Z" fill="#BBBBBB"/>
<path d="M8.03423 15.1332C8.03423 15.1332 6.28784 15.9684 4.81512 15.3385C3.34239 14.7086 2.70103 12.8521 2.70103 12.8521C2.70103 12.8521 4.44741 12.0169 5.92014 12.6468C7.39286 13.2767 8.03423 15.1332 8.03423 15.1332Z" fill="#BBBBBB"/>
<path d="M8.03423 15.1332C8.03423 15.1332 6.28784 15.9684 4.81512 15.3385C3.34239 14.7086 2.70103 12.8521 2.70103 12.8521C2.70103 12.8521 4.44741 12.0169 5.92014 12.6468C7.39286 13.2767 8.03423 15.1332 8.03423 15.1332Z" fill="#BBBBBB"/>
<path fill-rule="evenodd" clip-rule="evenodd" d="M5.88962 3.47304C6.08787 3.45423 6.43928 7.40685 6.45942 7.60779C6.80754 11.08 8.55978 16.8911 13.3822 21.1194C13.5289 21.248 13.5556 21.4699 13.4394 21.6254C13.3156 21.7908 13.0787 21.8169 12.9224 21.6801C7.9112 17.2938 6.10167 11.2684 5.7415 7.6759C5.72135 7.47496 5.69137 3.49185 5.88962 3.47304Z" fill="#BBBBBB"/>
<path fill-rule="evenodd" clip-rule="evenodd" d="M5.88962 3.47304C6.08787 3.45423 6.43928 7.40685 6.45942 7.60779C6.80754 11.08 8.55978 16.8911 13.3822 21.1194C13.5289 21.248 13.5556 21.4699 13.4394 21.6254C13.3156 21.7908 13.0787 21.8169 12.9224 21.6801C7.9112 17.2938 6.10167 11.2684 5.7415 7.6759C5.72135 7.47496 5.69137 3.49185 5.88962 3.47304Z" fill="#BBBBBB"/>
</svg>
