<svg width="14" height="22" viewBox="0 0 14 22" fill="none" xmlns="http://www.w3.org/2000/svg">
<path d="M3.15365 18.4597C3.15365 18.4597 2.02837 17.5379 1.97415 16.3287C1.91994 15.1195 2.95731 14.0809 2.95731 14.0809C2.95731 14.0809 4.08257 15.0027 4.13678 16.2119C4.191 17.4211 3.15365 18.4597 3.15365 18.4597Z" fill="#BBBBBB"/>
<path d="M3.15365 18.4597C3.15365 18.4597 2.02837 17.5379 1.97415 16.3287C1.91994 15.1195 2.95731 14.0809 2.95731 14.0809C2.95731 14.0809 4.08257 15.0027 4.13678 16.2119C4.191 17.4211 3.15365 18.4597 3.15365 18.4597Z" fill="#BBBBBB"/>
<path d="M3.70775 18.8933C3.70775 18.8933 4.94828 19.6494 6.09297 19.2906C7.23766 18.9317 7.85304 17.5938 7.85304 17.5938C7.85304 17.5938 6.61251 16.8376 5.46782 17.1965C4.32313 17.5554 3.70775 18.8933 3.70775 18.8933Z" fill="#BBBBBB"/>
<path d="M3.70775 18.8933C3.70775 18.8933 4.94828 19.6494 6.09297 19.2906C7.23766 18.9317 7.85304 17.5938 7.85304 17.5938C7.85304 17.5938 6.61251 16.8376 5.46782 17.1965C4.32313 17.5554 3.70775 18.8933 3.70775 18.8933Z" fill="#BBBBBB"/>
<path d="M5.56013 14.9037C5.56013 14.9037 6.07163 13.5223 5.51872 12.4531C4.9658 11.384 3.55784 11.0319 3.55784 11.0319C3.55784 11.0319 3.04633 12.4133 3.59925 13.4825C4.15216 14.5516 5.56013 14.9037 5.56013 14.9037Z" fill="#BBBBBB"/>
<path d="M5.56013 14.9037C5.56013 14.9037 6.07163 13.5223 5.51872 12.4531C4.9658 11.384 3.55784 11.0319 3.55784 11.0319C3.55784 11.0319 3.04633 12.4133 3.59925 13.4825C4.15216 14.5516 5.56013 14.9037 5.56013 14.9037Z" fill="#BBBBBB"/>
<path d="M7.86643 7.21415C7.86643 7.21415 6.36607 5.98503 6.29378 4.37277C6.18989 2.05573 7.57191 0.645617 7.57191 0.645617C7.57191 0.645617 9.57119 1.8445 9.67636 4.18985C9.78152 6.53519 7.86643 7.21415 7.86643 7.21415Z" fill="#BBBBBB"/>
<path d="M7.86643 7.21415C7.86643 7.21415 6.36607 5.98503 6.29378 4.37277C6.18989 2.05573 7.57191 0.645617 7.57191 0.645617C7.57191 0.645617 9.57119 1.8445 9.67636 4.18985C9.78152 6.53519 7.86643 7.21415 7.86643 7.21415Z" fill="#BBBBBB"/>
<path d="M7.56706 11.0652C7.56706 11.0652 9.74866 11.6198 11.2926 10.567C12.8365 9.51425 13.1581 7.25271 13.1581 7.25271C13.1581 7.25271 10.9765 6.69806 9.43254 7.75084C7.88863 8.80362 7.56706 11.0652 7.56706 11.0652Z" fill="#BBBBBB"/>
<path d="M7.56706 11.0652C7.56706 11.0652 9.74866 11.6198 11.2926 10.567C12.8365 9.51425 13.1581 7.25271 13.1581 7.25271C13.1581 7.25271 10.9765 6.69806 9.43254 7.75084C7.88863 8.80362 7.56706 11.0652 7.56706 11.0652Z" fill="#BBBBBB"/>
<path d="M6.95131 10.8584C6.95131 10.8584 7.63254 9.01625 6.89471 7.59101C6.15688 6.16578 4.27939 5.69718 4.27939 5.69718C4.27939 5.69718 3.59816 7.53935 4.33599 8.96459C5.07382 10.3898 6.95131 10.8584 6.95131 10.8584Z" fill="#BBBBBB"/>
<path d="M6.95131 10.8584C6.95131 10.8584 7.63254 9.01625 6.89471 7.59101C6.15688 6.16578 4.27939 5.69718 4.27939 5.69718C4.27939 5.69718 3.59816 7.53935 4.33599 8.96459C5.07382 10.3898 6.95131 10.8584 6.95131 10.8584Z" fill="#BBBBBB"/>
<path d="M5.96656 15.1332C5.96656 15.1332 7.71295 15.9684 9.18568 15.3385C10.6584 14.7086 11.2998 12.8521 11.2998 12.8521C11.2998 12.8521 9.55338 12.0169 8.08066 12.6468C6.60793 13.2767 5.96656 15.1332 5.96656 15.1332Z" fill="#BBBBBB"/>
<path d="M5.96656 15.1332C5.96656 15.1332 7.71295 15.9684 9.18568 15.3385C10.6584 14.7086 11.2998 12.8521 11.2998 12.8521C11.2998 12.8521 9.55338 12.0169 8.08066 12.6468C6.60793 13.2767 5.96656 15.1332 5.96656 15.1332Z" fill="#BBBBBB"/>
<path fill-rule="evenodd" clip-rule="evenodd" d="M8.11117 3.47304C7.91292 3.45423 7.56152 7.40685 7.54137 7.60779C7.19325 11.08 5.44102 16.8912 0.618608 21.1194C0.471902 21.248 0.445149 21.4699 0.561439 21.6254C0.685236 21.7908 0.922067 21.8169 1.07836 21.6801C6.08959 17.2938 7.89912 11.2684 8.2593 7.6759C8.27944 7.47496 8.30942 3.49185 8.11117 3.47304Z" fill="#BBBBBB"/>
<path fill-rule="evenodd" clip-rule="evenodd" d="M8.11117 3.47304C7.91292 3.45423 7.56152 7.40685 7.54137 7.60779C7.19325 11.08 5.44102 16.8912 0.618608 21.1194C0.471902 21.248 0.445149 21.4699 0.561439 21.6254C0.685236 21.7908 0.922067 21.8169 1.07836 21.6801C6.08959 17.2938 7.89912 11.2684 8.2593 7.6759C8.27944 7.47496 8.30942 3.49185 8.11117 3.47304Z" fill="#BBBBBB"/>
</svg>
