<svg id="Layer_1_1_" enable-background="new 0 0 48 48" viewBox="0 0 48 48" xmlns="http://www.w3.org/2000/svg"><circle cx="24" cy="24" fill="#74cc5e" r="19"></circle><path d="m37.435 10.565c-3.438-3.438-8.188-5.565-13.435-5.565-10.493 0-19 8.507-19 19 0 5.247 2.127 9.997 5.565 13.435z" fill="#a8ea92"></path><path d="m24 4c-11.028 0-20 8.972-20 20s8.972 20 20 20 20-8.972 20-20-8.972-20-20-20zm0 38c-9.925 0-18-8.075-18-18s8.075-18 18-18 18 8.075 18 18-8.075 18-18 18zm14.799-21.4-2.999 3.998c-.116.154-.333.344-.659.391s-.587-.074-.742-.19l-4-2.999c-.442-.332-.531-.958-.2-1.4.332-.442.958-.531 1.4-.2l2.152 1.613c-1-4.464-4.989-7.813-9.751-7.813-2.67 0-5.182 1.04-7.071 2.929-.391.391-1.023.391-1.414 0s-.391-1.023 0-1.414c2.267-2.267 5.281-3.515 8.485-3.515 5.721 0 10.511 4.026 11.706 9.391l1.494-1.991c.332-.442.958-.531 1.4-.2s.531.958.199 1.4zm-6.314 10.471c.391.391.391 1.023 0 1.414-2.267 2.267-5.281 3.515-8.485 3.515-5.721 0-10.511-4.026-11.706-9.391l-1.494 1.991c-.332.442-.958.531-1.4.2s-.531-.958-.2-1.4l2.999-3.998c.116-.154.333-.344.659-.391s.587.074.742.19l4 2.999c.442.332.531.958.2 1.4-.332.442-.958.531-1.4.2l-2.152-1.613c1.001 4.464 4.99 7.813 9.752 7.813 2.67 0 5.182-1.04 7.071-2.929.391-.39 1.024-.39 1.414 0z" fill="#474747"></path></svg>